# xmcd CD database file
#
# Track frame offsets:
#	150
#	29892
#	49754
#	86757
#	109185
#	124480
#	151633
#	173219
#	202505
#
# Disc length: 3133 seconds
#
# Revision: 0
# Processed by: cddbd v1.5.1PL0 Copyright (c) Steve Scherf et al.
# Submitted via: CDex 1.51
#
DISCID=720c3b09
DTITLE=Various Artist - Sanctum
DYEAR=2005
DGENRE=New Age
TTITLE0=Light Dream - Kamal
TTITLE1=Flute for the Soul - Ariel Kalma
TTITLE2=O Successores - Air Ensemble
TTITLE3=Alilo - Chloe Goodchild
TTITLE4=Shen Khar Venakhi - Ensemble Tbilisi
TTITLE5=Amen - Michael Reimann
TTITLE6=Light Prayer - Erik Berglund
TTITLE7=Nagarkot - Tarshito
TTITLE8=Sammasati - Deva Premal
EXTD=YEAR: 2005
EXTT0=
EXTT1=
EXTT2=
EXTT3=
EXTT4=
EXTT5=
EXTT6=
EXTT7=
EXTT8=
PLAYORDER=
